<?xml version="1.0" encoding="UTF-8"?><svg id="Layer_1" xmlns="http://www.w3.org/2000/svg" viewBox="0 0 789.11 180.98"><defs><style>.cls-1{letter-spacing:-.02em;}.cls-2{letter-spacing:-.03em;}.cls-3{letter-spacing:-.02em;}.cls-4{letter-spacing:-.03em;}.cls-5{font-size:129.65px;}.cls-5,.cls-6{font-family:SegoeUIVariable-BoldDisplay, 'Segoe UI Variable';font-variation-settings:'wght' 700, 'opsz' 36;font-weight:700;}.cls-7{letter-spacing:-.02em;}.cls-6{font-size:31.24px;}</style></defs><path d="M84.69.03c3.68-.07,9.49.01,13.54-.02.03,0,.07,0,.11,0,1.51.1,2.27-.16,3.88.17,2.56.49,6.73.85,9.37,1.5,2.39.67,6.45,1.32,8.86,2.19,7.09,2.31,14.06,5.4,20.73,9.29,4.13,2.68,8.18,5.76,11.91,8.92,11.18,9.32,19.68,21.51,25.6,34.72,3.6,8.41,5.77,17.46,6.64,26.75.32,4.61-.03,14.76.1,17.42-.03.63-.06.89-.21,1.65-.73,3.07-1.04,7.25-1.9,9.9-1.12,3.18-1.92,7.77-3.35,10.91-1.25,2.56-2.44,6.04-3.85,8.51-1.22,2.02-2.45,4.82-3.81,6.74-3.17,4.94-7.09,9.72-10.95,14.07-.03.03-.06.07-.09.1-7.41,7.38-12.16,10.84-19.02,15.17-3.48,1.99-8.24,4.19-12.01,5.77-2.53,1.17-6.49,2.2-9.11,3.18-1.55.52-1.39.47-3.2.85-5.39,1.19-10.28,2.12-15.85,2.71-4.42.56-9.31.37-13.83.4-2.73.14-5.16-.43-7.89-.56-.03,0-.07,0-.1,0-3.49-.39-7.18-1.09-10.6-1.86-6.76-1.6-13.44-3.99-19.75-7.02-5.32-2.39-10.11-5.64-14.86-9.26-4.75-3.61-9.26-8.09-13.15-12.42-.03-.03-.06-.07-.09-.1-3.84-4.9-7.6-9.73-10.45-15.23-2.44-4.31-4.18-8.55-5.81-12.69-1.02-2.58-1.83-6.2-2.66-8.75-.93-2.81-1.12-5.71-1.82-8.75,0-.03-.01-.06-.02-.1-.6-3.46-.95-7.31-1.02-10.67-.14-5.14.17-9.85.65-14.54.35-2.71,1.27-6.13,1.75-8.85.59-3.11,1.67-5.9,2.64-8.88.02-.06.04-.11.06-.16,1.08-2.4,2.45-6.31,3.74-8.79,1.02-1.77,2.38-4.76,3.26-6.23.02-.04.04-.07.07-.11,1.89-2.76,3.52-5.38,5.57-8.1,1.84-2.54,3.63-4.86,5.82-7.14,1.72-1.97,4.06-4.66,5.97-6.42,2.27-1.92,5.18-4.3,7.48-6.17,1.54-1.2,5.18-3.4,7.21-4.86,2.3-1.64,6.65-3.51,8.87-4.81.04-.02.07-.04.11-.06,1.94-.98,4.14-1.71,6.16-2.58,3.08-1.36,8.31-2.52,11.02-3.48.06-.02.11-.04.17-.05,4.57-1.13,9.37-1.85,14.03-2.28h.08ZM83.98,8.06c-4.75.67-10.64,1.59-15.37,3.07-3.16.77-6.73,2.53-9.85,3.59-3.93,1.52-7.34,3.53-11.04,5.64-18.53,11.74-33.53,30.51-38.04,52.44-.71,3.42-1.23,6.76-1.55,10.3-.36,3.04-.03,7.05-.14,10.1-.1,3.07.67,6.81.87,9.86.39,3.17,1.02,6.82,1.77,9.85.02.07.04.13.06.19,1.24,3.31,2.32,7.43,3.77,10.53,3,6.74,6.99,13.94,11.71,19.66,3.96,4.67,8.03,9.16,12.97,12.74,5.72,4.48,11.97,8.05,18.53,10.8,6.23,2.66,12.37,4.5,19.32,5.71,3.95.6,7.97,1.45,12.05.92.52-.13.56-.31.58-.68,0-3.74,0-32.85,0-35.76-.02-.35-.1-.33-.61-.36-1.78-.04-9.46-.2-13.26-.29-1.49-.1-2.07.07-3.67-.26-2.9-.59-6.21-.77-9.23-1.71-1.77-.54-3.63-.9-5.3-1.63-2.3-1.14-5.91-2.37-8.31-3.82-5.94-3.14-11.29-7.95-16.1-12.65-3.45-3.5-6.16-7.53-8.66-11.72-.02-.03-.04-.07-.06-.11-1.74-3.55-4.85-6.86-4.4-10.88.04-.38.22-.74.49-1.01,1.18-1.24,2.84-1.33,4.63-1.74,3.24-.71,6.58-1.16,9.91-1.23,2.41-.02,6.57,0,8.57-.01,2.96.17.07-4.36-.3-6.04-1.75-5.01-2.75-10.63-3.14-16.02-.13-6.01.5-12.4,2.33-18.07,1.31-2.87,5.94-.58,8.29-.04.07.02.13.03.19.05,4,1.39,7.96,3.81,11.63,5.98.05.03.11.07.16.11,2.18,1.64,4.65,3.28,6.52,5.17.7.54,2.05,2.62,2.98,1.74.97-1.84,1.77-4.93,2.6-7.13,2.82-7.43,6.29-14.57,11.66-20.64,1.51-1.54,3.15-3.76,4.94-4.99.44-.3.99-.42,1.5-.26,3.99,1.2,8.67,8.53,10.95,11.55.03.03.05.06.07.1,2.1,3.17,4.14,7.17,5.83,10.47,1.38,2.56,2.34,7.14,3.51,9.95.46,1.11,1.87,1.48,2.79.71.56-.47,1.08-1.05,1.51-1.39,1.36-1.27,2.14-2.02,3.59-3.05,4.24-3.22,9.59-6.2,14.51-8.23.04-.02.08-.03.12-.05,2.52-.86,5.66-2.07,8.11-1,.22.1.43.24.58.43.92,1.13,1.13,3,1.48,4.29.01.04.02.08.03.13,1.07,5.71,1.86,11.68,1.08,17.63-.64,3.83-.99,7.18-2.11,10.66-.54,2.13-.87,3.03-1.68,4.98-.26.98-1.47,2.76.27,2.92,5.02.14,10.66-.2,15.86.77,1.78.3,4.1.78,5.77,1.63.79.4,1.19,1.31.94,2.16-.03.1-.06.19-.08.28-.72,1.97-.94,3.22-2.01,5.03-1.2,2.15-1.99,4.1-3.4,6.16-3.15,4.68-6.56,9.41-10.79,13.4-6.75,6.32-14.83,10.99-23.51,13.99-4.69,1.39-9.92,2.48-14.7,3.12-3.8.56-11.24.3-14.06.56-.92.1-1.24,1.45-1.38,2.28-.02.11-.03.21-.02.32.05,3.42-.11,25.85.02,32.59.02.94.74,1.72,1.67,1.77,2.04.11,4.08-.2,6.24-.55,4.71-.57,8.44-1.56,13.45-2.85,7.34-1.85,14.54-5.2,21.1-9.03,5.37-3.19,10.27-7.38,14.81-11.53,5.96-5.59,10.54-12.23,14.65-19.19,1.26-1.92,2.28-4.74,3.31-6.71,1.19-2.49,2.17-6.44,3.13-9.01,1.01-2.75,1.52-6.71,2.25-9.49.56-2.63.84-5.78.99-8.52,0-.05,0-.1,0-.15-.12-3.94.24-8.54-.18-12.36-.2-1.77-.46-3.77-.66-5.52-.11-2-.7-3.47-1.09-5.46-.56-2-.64-3.27-1.44-5.25-1.3-3.21-2.09-6.65-3.64-9.7-1.68-3.12-2.74-6.41-4.73-9.35-2.12-3.46-4.49-6.76-7.1-9.89-2.53-3.27-5.79-6.36-8.68-9.29-.99-1-1.15-1.16-2.1-1.9-2.62-1.99-5.22-4.1-7.89-5.89-5.28-3.28-10.82-6.42-16.85-8.66-7.21-2.67-14.4-4.34-22.11-5.15-3.93-.39-12.01-.11-17.3-.16h-.07ZM92.72,38.39c-1.67.76-2.55,2.12-3.71,3.58-.88,1.18-1.86,2.25-2.58,3.5-.81,1.5-2.6,4.38-3.51,6.23-.02.05-.04.1-.07.15-.88,2.24-2.27,5.56-3.17,8.17-3.88,10.96-2.38,7.75,2.45,16.98,1.52,2.79,3.03,5.65,4.34,8.29.02.04.04.09.06.13,1.43,3.54,2.93,7.4,4.08,10.35,2.67,7.61,2.78,4.8,4.72-.96,1.68-5.01,4.49-10.84,7.03-15.31,1.37-2.16,3.13-5.13,4.49-7.08.93-1.22,1.66-2.82,1.3-4.37-.97-3.67-2.46-9.2-4.05-13.03-1.22-2.74-3.04-6.2-4.35-8.46-.03-.05-.06-.09-.09-.14-1.17-1.66-2.78-3.9-3.93-5.49-.03-.04-.06-.08-.1-.12-.72-.79-1.59-2.45-2.81-2.45l-.12.03ZM47.43,55.93c-1.22,1.12-.79,2.87-1.01,4.7-.06,1.67-.19,2.49-.13,3.82,0,.04,0,.07,0,.11.33,2.96.32,5.94,1.02,8.93,1.05,5.19,2.53,10.28,5.15,15.08,1.14,1.93,2.41,2.39,4.65,3.15,1.31.47,2.75.97,4.01,1.42,3.04,1.26,6.65,3.4,9.4,5.12,1.15.67,2.91,1.32,2.23-.74-.29-1.15-.87-2.92-1.18-3.99-.76-3.03-1.38-6.37-1.56-9.41-.04-3.18,0-7.52-.02-10.81-.08-1.47.27-1.8-.46-2.77-1.27-1.58-2.98-3.4-4.4-4.72-.04-.03-.07-.07-.11-.1-3.85-3.12-7.74-5.86-12.23-8.15-.85-.42-1.73-.89-2.57-1.29-.88-.37-1.8-.82-2.68-.42l-.11.06ZM138.51,55.64c-6.59,2.13-12.66,6.31-17.97,10.71-.88.74-2.09,1.88-2.97,2.7-.79.8-1.76,1.78-1.7,2.79-.06,2.77-.26,12.38-.33,14.77,0,.09,0,.16-.02.25-.45,2.77-1.14,6.01-1.7,8.76-.06.31-.17.67-.29,1.05-.45,1.52,1.08,2.79,2.53,2.15,0,0,.02,0,.02-.01,2.35-1.61,5.5-3.36,8.13-4.42,2.16-.78,5.9-2.02,8.11-2.78,1.04-.34,1.25-.44,1.96-1.47.69-1.05,1.52-2.03,1.97-3.2.82-2.39,2.28-5.56,2.91-8.35.9-3.25,1.36-6.32,1.84-9.81.28-1.39.09-2.65.03-4.22-.1-2.24-.24-4.11-.58-6.4-.1-1.23-.32-2.66-1.81-2.53h-.12ZM75.99,78.82c-.74,3.36.33,7.1.77,10.59,0,.06.02.12.03.18,1.17,4.74,2.59,9.82,4.42,14.89.68,2.15,2.27,4.17,3.47,6.1,1.08,1.49,1.8,2.89,3.06,4.07.21.18.6.48.81.34.57-.41.39-2.16.26-2.95-.67-2.68-1.59-7.5-2.52-10.05-.96-2.83-2.36-7.09-2.93-8.68-1.02-2.49-3.19-7.65-3.9-9.35-.34-.82-.84-1.54-1.31-2.35-.92-1.53-1.74-3.01-2.11-2.83l-.05.03ZM109.13,80.89c-.52.21-1.43,2.05-1.92,2.84-.02.03-.04.06-.06.09-.81,1.46-1.54,3.08-2.3,4.59-2.37,4.9-4.38,9.76-6.23,14.55-.55,1.35-.79,2.37-1.28,3.91-1.05,3.66-1.93,5.53-2.17,8.58-.1,1.35-.94,2.64-1.02,4.07.28,2.58,2.53-2.44,2.97-2.89,2.32-3.99,4.67-8,6.92-12.21,1.25-2.48,2.27-5.96,3.36-8.68.56-1.62,1.04-4.51,1.47-6.3.24-1.1.33-2.23.49-3.4.17-1.95.57-3.01.22-4.73-.06-.22-.16-.46-.38-.44l-.07.02ZM34.98,96.27c-1.03.1-2.57.33-3.68.47-.37.07-.75.11-1.12.18-1.19.22-1.87,1.54-1.3,2.61.35.65.9,1.28,1.46,2.28.7,1.06,1.32,2.11,2.07,3.1,2.64,3.59,5.82,7.78,9.37,10.66,3.9,3.57,8.51,6.28,13,8.74,2.51,1.3,6.23,2.33,8.91,3.38.07.03.13.05.2.06,4.15,1.09,8.94,1.77,13.33,2.17,2.72.28,6.56.06,9.25.12.92-.05,1.84.16,2.35-.62.58-.99-.32-2.58-1.09-4.14-1.29-2.56-3.51-5.2-5.21-7.8-2.39-3.31-4.84-5.97-7.67-8.76-1.43-1.41-3.86-2.82-5.69-4.2-1.97-1.37-4.53-2.45-6.76-3.7-2.58-1.35-5.2-2.12-7.82-2.91-6.16-1.74-13.08-1.77-19.5-1.67h-.1ZM144.73,96.24c-1.77.15-4.73.46-6.52.69-.05,0-.09.01-.14.02-1.85.38-5.1,1.21-6.56,1.54-.05.01-.1.03-.15.04-2.73.89-6.28,2.19-8.84,3.43-.81.43-2.27,1.21-3.15,1.68-1.13.56-1.73,1.07-2.93,2-1.64,1.26-2.77,2.11-4.45,3.57-3.65,2.85-6.76,6.38-9.2,10.31-1.5,2.51-3.11,4.56-4.26,7.29-.4,1.1-1.98,3.37-.4,3.56,4.78-.12,11.27-.28,16.17-1.33,2.63-.61,5.41-.97,7.91-1.8,2.1-.79,5.12-1.51,7.1-2.56,6.09-3,11.85-6.68,16.73-11.62,4.21-3.98,7.64-9.03,10.59-13.99.54-1.08,1.33-2.22-.57-2.27-3.49-.36-7.64-.74-11.22-.57h-.11Z"/><text class="cls-6" transform="translate(223.33 165.55) scale(1.33 1)"><tspan class="cls-2" x="0" y="0">C</tspan><tspan x="21.57" y="0" xml:space="preserve">OUNSELING  &amp;  </tspan><tspan class="cls-4" x="253.87" y="0">C</tspan><tspan class="cls-1" x="275.44" y="0">O</tspan><tspan class="cls-7" x="298.43" y="0">A</tspan><tspan x="319.65" y="0">CHING</tspan></text><text class="cls-5" transform="translate(212.34 116.88) scale(1.13 1)"><tspan x="0" y="0">D’</tspan><tspan class="cls-3" x="130.66" y="0">O</tspan><tspan x="226.06" y="0">ASIS</tspan></text></svg>